<svg width="151" height="31" viewBox="0 0 151 31" fill="none" xmlns="http://www.w3.org/2000/svg">
<g clip-path="url(#clip0_501_712)">
<path d="M3.96279 0.798828H11.7321C14.495 0.798828 16.5088 1.5297 17.7734 2.99146C19.038 4.45321 19.6703 6.36279 19.6703 8.72018C19.6883 10.9179 19.1273 13.0817 18.0438 14.9939C16.9594 16.9119 15.6779 18.1793 14.1993 18.7961C12.8651 19.3773 11.4296 19.6902 9.97457 19.7171H0L3.96279 0.798828ZM6.75955 15.5347H9.17187C10.7744 15.5347 11.9658 14.7094 12.746 13.059C13.5114 11.5223 13.9201 9.83266 13.9416 8.11605C13.9876 7.29237 13.7489 6.47792 13.2656 5.80935C12.8122 5.24605 12.001 4.9644 10.8322 4.9644H8.95641L6.75955 15.5347Z" fill="#D9251C"/>
<path d="M34.4844 16.2058C33.8187 17.4812 32.7696 18.5156 31.4849 19.1631C30.0233 19.8091 28.4347 20.1167 26.8377 20.063C24.1367 20.063 22.2158 19.4532 21.0751 18.2337C19.9463 17.0238 19.3392 15.4181 19.3853 13.7639C19.3787 12.5664 19.6537 11.3841 20.188 10.3123C20.6998 9.2572 21.4401 8.32925 22.3552 7.59584C23.1472 6.92737 24.0651 6.42457 25.0548 6.11719C26.0687 5.84725 27.1152 5.71929 28.1642 5.73696C30.7216 5.73696 32.5523 6.29181 33.6564 7.4015C34.199 7.93289 34.6267 8.57006 34.9131 9.27351C35.1994 9.97697 35.3382 10.7317 35.3209 11.491C35.2755 12.4153 35.1597 13.3347 34.9745 14.2413H24.5014C24.6479 16.0749 25.4703 16.9916 26.9686 16.9916C27.4444 17.0038 27.9157 16.8964 28.3393 16.6794C28.763 16.4625 29.1254 16.1428 29.3936 15.7496L34.4844 16.2058ZM30.0949 11.6769C30.1639 11.4209 30.1952 11.1562 30.1879 10.8911C30.2116 10.5957 30.1685 10.2987 30.0617 10.0223C29.9549 9.7458 29.7872 9.49694 29.5711 9.29418C29.1398 8.93345 28.591 8.74398 28.029 8.76186C27.3654 8.7692 26.7294 9.02903 26.2504 9.48851C25.6429 10.0848 25.2129 10.838 25.0084 11.6642L30.0949 11.6769Z" fill="#D9251C"/>
<path d="M43.96 0.798828L39.9339 19.7171H34.6445L38.696 0.798828H43.96Z" fill="#D9251C"/>
<path d="M53.3663 6.02506L52.5678 9.78084H49.8176L48.8121 14.6224C48.7398 14.833 48.704 15.0545 48.7065 15.2772C48.7065 15.8982 49.1289 16.2066 49.9316 16.2066C50.4793 16.1669 51.0231 16.085 51.5581 15.9616L50.7723 19.7174C49.6181 19.8958 48.4542 20.0044 47.2869 20.0427C45.8167 20.0427 44.7732 19.6892 44.1564 18.9823C43.5729 18.3532 43.2445 17.5294 43.2354 16.6714C43.3084 15.9286 43.4326 15.1917 43.6072 14.4661L44.5874 9.78084H42.7031L43.4805 6.02506H45.4027L45.8548 3.88313L51.7271 0.951172L50.6414 6.02084L53.3663 6.02506Z" fill="#D9251C"/>
<path d="M53.6984 9.78C53.8392 9.156 54.1044 8.56683 54.4783 8.04778C54.8521 7.52873 55.3269 7.0905 55.8742 6.75932C57.0008 6.05239 58.754 5.70033 61.134 5.70314C63.8265 5.70314 65.6445 6.03971 66.5881 6.71285C67.0533 7.04706 67.4266 7.49337 67.6732 8.01036C67.9199 8.52735 68.032 9.09827 67.9991 9.67016C67.9106 11.1146 67.6727 12.5459 67.2894 13.9413C66.9436 15.2152 66.7229 16.5198 66.6303 17.8365C66.6354 18.4834 66.7497 19.1247 66.9683 19.7334H61.8437C61.7303 19.2188 61.6751 18.693 61.6789 18.1661C60.4441 19.3641 58.7944 20.0391 57.074 20.0503C55.3419 20.0503 54.0984 19.6461 53.3436 18.8378C52.6088 18.0863 52.2004 17.0751 52.2071 16.0241C52.2071 14.8074 52.5451 13.8822 53.221 13.2485C53.921 12.5987 54.7838 12.1505 55.7179 11.9515C57.0549 11.6691 58.4079 11.4687 59.7694 11.3516C60.7952 11.269 61.8134 11.1094 62.8154 10.8742C62.9038 10.5716 62.9562 10.2596 62.9717 9.94476C62.9723 9.76898 62.9236 9.59656 62.8309 9.44717C62.7383 9.29777 62.6056 9.17741 62.4478 9.09982C62.0218 8.87504 61.5433 8.76854 61.0621 8.79141C60.5577 8.77138 60.0557 8.86976 59.5962 9.07869C59.142 9.36662 58.7947 9.7955 58.6076 10.2996L53.6984 9.78ZM62.2197 13.5822C59.8003 13.9878 58.3794 14.3455 57.957 14.6553C57.7707 14.7725 57.6159 14.9334 57.5062 15.1242C57.3965 15.3149 57.3351 15.5296 57.3275 15.7495C57.317 15.946 57.3524 16.1421 57.4309 16.3225C57.5093 16.5029 57.6287 16.6625 57.7795 16.7888C58.1081 17.0518 58.5208 17.1869 58.9413 17.169C59.6706 17.143 60.367 16.8585 60.9058 16.3663C61.5564 15.8298 61.9958 14.9046 62.2197 13.5865V13.5822Z" fill="#D9251C"/>
<path d="M90.073 0.798828L86.0089 19.7171H80.1365L81.7757 12.0281H75.4386L73.8248 19.7171H67.9102L71.9743 0.798828H77.8467L76.4145 7.48234H82.7516L84.2345 0.798828H90.073Z" fill="#D9251C"/>
<path d="M97.3528 5.71629C99.8032 5.71629 101.578 6.3331 102.714 7.57517C103.816 8.75252 104.422 10.3098 104.404 11.9224C104.385 13.2671 104.054 14.589 103.436 15.7838C102.793 17.0842 101.781 18.1659 100.526 18.8932C99.064 19.6999 97.4117 20.0969 95.7432 20.0423C93.3436 20.0423 91.5706 19.4509 90.4243 18.2679C89.86 17.6814 89.4186 16.9879 89.1262 16.2283C88.8338 15.4686 88.6963 14.6582 88.7217 13.8447C88.7256 12.4424 89.0784 11.0631 89.7483 9.83117C90.4164 8.55488 91.4448 7.50302 92.7056 6.80627C94.1348 6.04823 95.7357 5.67275 97.3528 5.71629V5.71629ZM96.0727 16.4767C97.0557 16.4767 97.8345 15.9753 98.409 14.9727C98.9825 13.9551 99.2742 12.803 99.254 11.6351C99.254 10.7479 99.0343 10.1269 98.5949 9.7678C98.1935 9.43772 97.6908 9.25573 97.1712 9.25238C96.6539 9.23613 96.1429 9.36988 95.6999 9.63749C95.2568 9.9051 94.9007 10.2951 94.6744 10.7606C94.1337 11.6995 93.8428 12.7613 93.8294 13.8447C93.805 14.5343 94.0368 15.2085 94.48 15.7373C94.6733 15.9718 94.9168 16.16 95.1924 16.2879C95.468 16.4159 95.7689 16.4804 96.0727 16.4767V16.4767Z" fill="#D9251C"/>
<path d="M121.246 6.02344L118.289 19.7158H113.346L113.823 17.6034L113.76 17.5527C113.121 18.3335 112.314 18.9606 111.4 19.3877C110.486 19.8148 109.488 20.0308 108.479 20.0199C107.211 20.0199 106.282 19.6989 105.661 19.0567C105.357 18.7536 105.117 18.3924 104.956 17.9946C104.795 17.5968 104.716 17.1707 104.723 16.7416C104.806 15.5918 104.987 14.4511 105.264 13.3322L106.882 6.02344H112.137L110.684 12.7069L110.325 14.418C110.294 14.6121 110.279 14.8086 110.283 15.0052V15.0432C110.283 15.7868 110.617 16.1543 111.288 16.1543C111.693 16.148 112.09 16.0464 112.447 15.8577C112.805 15.6691 113.112 15.3987 113.346 15.0686C114.015 14.1465 114.464 13.0825 114.655 11.9592L115.923 6.04456L121.246 6.02344Z" fill="#D9251C"/>
<path d="M135.086 9.29448L130.168 9.82257C130.019 8.99735 129.403 8.58473 128.322 8.58473C127.816 8.54982 127.312 8.67073 126.877 8.93116C126.733 9.01467 126.612 9.13313 126.525 9.27562C126.439 9.41811 126.39 9.58006 126.383 9.74653C126.383 9.90337 126.421 10.0578 126.495 10.1963C126.569 10.3347 126.675 10.453 126.805 10.5408C127.087 10.752 127.858 10.9478 129.12 11.128C131.143 11.4294 132.487 11.8828 133.155 12.4884C133.488 12.797 133.751 13.1746 133.924 13.5948C134.096 14.015 134.176 14.4678 134.156 14.9218C134.156 16.3301 133.501 17.5341 132.192 18.5339C130.882 19.5338 128.895 20.0365 126.231 20.0422C124.045 20.0422 122.444 19.7239 121.427 19.0874C120.413 18.4495 119.817 17.3975 119.648 15.9357L124.836 15.4837C125.059 16.5962 125.79 17.1511 127.029 17.1482C127.563 17.1598 128.09 17.0317 128.558 16.7765C128.76 16.6798 128.931 16.5275 129.049 16.3374C129.167 16.1472 129.228 15.9273 129.226 15.7034C129.243 15.5306 129.206 15.3567 129.121 15.2055C129.035 15.0544 128.905 14.9332 128.748 14.8584C128.165 14.6453 127.558 14.5035 126.94 14.436C124.898 14.1149 123.517 13.6333 122.796 12.9911C122.449 12.69 122.172 12.3164 121.985 11.8967C121.798 11.4769 121.706 11.0213 121.714 10.5619C121.723 9.70725 122.002 8.87734 122.513 8.19183C123.139 7.36223 123.994 6.73257 124.972 6.37943C126.266 5.90272 127.64 5.6776 129.019 5.71615C130.852 5.71615 132.255 5.9823 133.244 6.52307C133.743 6.81245 134.169 7.213 134.488 7.69364C134.808 8.17428 135.012 8.72207 135.086 9.29448V9.29448Z" fill="#D9251C"/>
<path d="M150.177 16.2057C149.511 17.4811 148.462 18.5155 147.177 19.1631C145.716 19.8091 144.127 20.1167 142.53 20.0629C139.832 20.0629 137.911 19.4532 136.768 18.2336C135.631 17.0271 135.016 15.4209 135.057 13.7639C135.05 12.5663 135.325 11.384 135.859 10.3123C136.371 9.25713 137.111 8.32918 138.027 7.59577C138.818 6.92827 139.734 6.42554 140.722 6.11711C141.737 5.84759 142.785 5.71964 143.836 5.73689C146.39 5.73689 148.221 6.29174 149.328 7.40143C149.87 7.93282 150.298 8.56999 150.584 9.27344C150.871 9.9769 151.01 10.7317 150.992 11.491C150.947 12.4152 150.831 13.3346 150.646 14.2413H140.211C140.36 16.0748 141.182 16.9915 142.678 16.9915C143.154 17.0033 143.625 16.8958 144.048 16.6789C144.472 16.4619 144.834 16.1424 145.103 15.7495L150.177 16.2057ZM145.787 11.6768C145.855 11.4206 145.885 11.1559 145.876 10.891C145.899 10.595 145.854 10.2976 145.746 10.0211C145.638 9.74458 145.468 9.49608 145.251 9.2941C144.819 8.93407 144.271 8.7447 143.709 8.76179C143.051 8.77703 142.423 9.04122 141.951 9.50112C141.333 10.0931 140.894 10.8471 140.684 11.6768H145.787Z" fill="#D9251C"/>
<path d="M76.9942 30.3148H75.9337L74.8022 27.5237H72.5393L71.9558 30.3148H70.9766L72.5292 22.9167H75.335C76.1028 22.9167 76.6931 23.0903 77.1058 23.4377C77.5185 23.7885 77.7248 24.2494 77.7248 24.8204C77.7248 25.2331 77.6571 25.5977 77.5218 25.9141C77.3831 26.2374 77.2225 26.4816 77.0398 26.6467C76.8572 26.8083 76.6694 26.9459 76.4766 27.0594C76.2872 27.1695 76.1248 27.24 75.9895 27.2709L75.7815 27.3225L76.9942 30.3148ZM73.3156 23.804L72.727 26.6364H74.5536C75.2301 26.6364 75.7544 26.485 76.1265 26.1824C76.4986 25.8763 76.6846 25.4584 76.6846 24.9287C76.6846 24.5813 76.5544 24.3079 76.294 24.1084C76.0335 23.9055 75.6513 23.804 75.1473 23.804H73.3156Z" fill="black"/>
<path d="M84.062 27.209C84.062 27.5151 84.0181 27.7937 83.9301 28.0448L83.8794 28.1583H79.3129C79.2858 28.5091 79.3975 28.8324 79.6478 29.1282C79.8981 29.4274 80.304 29.577 80.8655 29.577C81.2038 29.577 81.5133 29.5203 81.794 29.4068C82.0782 29.2899 82.2777 29.1764 82.3927 29.0663L82.5551 28.8909H83.6054C83.5885 28.9218 83.558 28.9752 83.5141 29.0508C83.4667 29.1299 83.3686 29.252 83.2198 29.4171C83.0709 29.5856 82.895 29.7421 82.6921 29.8866C82.506 30.0207 82.2405 30.1428 81.8955 30.2529C81.5674 30.3629 81.1987 30.418 80.7894 30.418C80.0621 30.418 79.4719 30.2133 79.0186 29.804C78.5654 29.3948 78.3387 28.8393 78.3387 28.1377C78.3387 27.2503 78.6601 26.5108 79.3028 25.9192C79.9387 25.3277 80.7251 25.0319 81.6621 25.0319C82.3589 25.0319 82.9339 25.2314 83.3872 25.6303C83.8371 26.0259 84.062 26.5521 84.062 27.209ZM81.5911 25.878C81.0228 25.878 80.5374 26.0413 80.1349 26.3681C79.7323 26.6948 79.4973 27.0164 79.4296 27.3328H83.1284C83.1284 26.8754 82.9864 26.5177 82.7022 26.2597C82.4147 26.0052 82.0443 25.878 81.5911 25.878Z" fill="black"/>
<path d="M92.7738 30.3148H91.8808L92.444 27.6424C92.4982 27.4016 92.5252 27.166 92.5252 26.9356C92.5252 26.2305 92.1802 25.878 91.4902 25.878C90.6174 25.878 90.0559 26.4661 89.8056 27.6424L89.2424 30.3148H88.3494L88.9126 27.6424C88.9668 27.4016 88.9938 27.166 88.9938 26.9356C88.9938 26.2305 88.6471 25.878 87.9537 25.878C87.0776 25.878 86.5161 26.4661 86.2692 27.6424L85.711 30.3148H84.818L85.8988 25.1351H86.7918L86.6243 25.9296H86.6751C86.6784 25.9261 86.6852 25.9141 86.6954 25.8935C86.7055 25.8728 86.7157 25.8539 86.7258 25.8367C86.7393 25.8161 86.7613 25.7868 86.7918 25.749C86.8222 25.7077 86.8577 25.663 86.8983 25.6149C86.9863 25.5151 87.086 25.424 87.1977 25.3414C87.3161 25.2554 87.4734 25.1832 87.6695 25.1247C87.8657 25.0628 88.0721 25.0319 88.2885 25.0319C89.009 25.0319 89.5215 25.3311 89.8259 25.9296H89.8868C89.9409 25.8401 90.0289 25.7352 90.1507 25.6149C90.2555 25.5151 90.3654 25.424 90.4805 25.3414C90.609 25.2554 90.7764 25.1832 90.9828 25.1247C91.1891 25.0628 91.3988 25.0319 91.6119 25.0319C92.1734 25.0319 92.625 25.1798 92.9666 25.4756C93.3049 25.7679 93.474 26.191 93.474 26.7447C93.474 26.9167 93.4419 27.1454 93.3776 27.4309L92.7738 30.3148Z" fill="black"/>
<path d="M100.268 27.209C100.268 27.5151 100.224 27.7937 100.136 28.0448L100.085 28.1583H95.5188C95.4917 28.5091 95.6034 28.8324 95.8537 29.1282C96.104 29.4274 96.5099 29.577 97.0714 29.577C97.4096 29.577 97.7192 29.5203 97.9999 29.4068C98.284 29.2899 98.4836 29.1764 98.5986 29.0663L98.761 28.8909H99.8113C99.7944 28.9218 99.7639 28.9752 99.7199 29.0508C99.6726 29.1299 99.5745 29.252 99.4257 29.4171C99.2768 29.5856 99.1009 29.7421 98.898 29.8866C98.7119 30.0207 98.4464 30.1428 98.1014 30.2529C97.7733 30.3629 97.4046 30.418 96.9953 30.418C96.268 30.418 95.6778 30.2133 95.2245 29.804C94.7712 29.3948 94.5446 28.8393 94.5446 28.1377C94.5446 27.2503 94.866 26.5108 95.5086 25.9192C96.1446 25.3277 96.931 25.0319 97.868 25.0319C98.5648 25.0319 99.1398 25.2314 99.5931 25.6303C100.043 26.0259 100.268 26.5521 100.268 27.209ZM97.797 25.878C97.2287 25.878 96.7433 26.0413 96.3408 26.3681C95.9382 26.6948 95.7031 27.0164 95.6355 27.3328H99.3343C99.3343 26.8754 99.1923 26.5177 98.9081 26.2597C98.6206 26.0052 98.2502 25.878 97.797 25.878Z" fill="black"/>
<path d="M106.133 30.3148H105.24L105.803 27.6424C105.844 27.4429 105.864 27.2623 105.864 27.1007C105.864 26.2821 105.411 25.8745 104.505 25.878C103.967 25.878 103.524 26.0396 103.175 26.3629C102.82 26.6897 102.587 27.1162 102.475 27.6424L101.917 30.3148H101.024L102.105 25.1351H102.998L102.83 25.9296H102.881C102.932 25.8505 103.026 25.7456 103.165 25.6149C103.277 25.5117 103.398 25.4205 103.53 25.3414C103.676 25.2554 103.867 25.1832 104.104 25.1247C104.344 25.0628 104.587 25.0319 104.834 25.0319C105.389 25.0319 105.858 25.1918 106.24 25.5117C106.619 25.8315 106.808 26.2804 106.808 26.8582C106.808 27.0061 106.784 27.197 106.737 27.4309L106.133 30.3148Z" fill="black"/>
<path d="M110.182 30.418C109.472 30.418 108.926 30.2133 108.543 29.804C108.161 29.3948 107.97 28.8926 107.97 28.2976C107.97 28.0087 108.011 27.7335 108.092 27.4721C108.173 27.2073 108.283 26.9837 108.422 26.8015C108.567 26.6123 108.718 26.4472 108.873 26.3062C109.195 26.0138 109.614 25.7714 110.131 25.5787L110.258 25.5478V25.5168L109.228 23.7834L109.416 22.9167H114.424L114.236 23.7834H110.38V23.8143L112.531 27.4412L112.998 25.393H113.861L113.125 28.4008L113.988 29.8917L113.216 30.418L112.587 29.3965H112.562C112.558 29.3999 112.547 29.4154 112.526 29.4429C112.506 29.467 112.489 29.4876 112.476 29.5048C112.438 29.5564 112.347 29.6372 112.202 29.7473C112.049 29.8711 111.894 29.9743 111.735 30.0568C111.566 30.1497 111.342 30.2322 111.065 30.3045C110.791 30.3801 110.497 30.418 110.182 30.418ZM110.36 29.5564C110.715 29.5564 111.043 29.479 111.344 29.3242C111.642 29.1729 111.848 29.0233 111.963 28.8754L112.141 28.6536L110.715 26.2597C110.668 26.2666 110.603 26.2821 110.522 26.3062C110.421 26.3371 110.279 26.3973 110.096 26.4867C109.903 26.5796 109.724 26.6966 109.558 26.8376C109.399 26.9717 109.257 27.1643 109.132 27.4154C109.003 27.6699 108.939 27.9468 108.939 28.246C108.939 28.6347 109.063 28.9494 109.31 29.1901C109.556 29.4343 109.907 29.5564 110.36 29.5564Z" fill="black"/>
<path d="M121.842 30.3148H120.913L121.228 28.9012H121.187C121.171 28.9322 121.14 28.9855 121.096 29.0611C121.035 29.1506 120.935 29.2727 120.797 29.4274C120.641 29.6028 120.469 29.7576 120.279 29.8917C120.09 30.0224 119.834 30.1428 119.513 30.2529C119.202 30.3629 118.862 30.418 118.493 30.418C117.526 30.418 116.761 30.1377 116.2 29.577C115.632 29.0199 115.347 28.2942 115.347 27.3999C115.347 26.0998 115.762 25.0095 116.591 24.129C117.419 23.252 118.463 22.8135 119.721 22.8135C120.235 22.8135 120.699 22.8943 121.111 23.056C121.527 23.2176 121.855 23.436 122.096 23.7112C122.556 24.2443 122.786 24.8083 122.786 25.4033C122.786 25.5031 122.782 25.5908 122.776 25.6665H121.776C121.769 25.5461 121.762 25.4567 121.756 25.3982C121.749 25.3363 121.73 25.2486 121.7 25.1351C121.673 25.0216 121.632 24.9029 121.578 24.7791C121.494 24.5865 121.38 24.4128 121.238 24.258C121.089 24.0998 120.88 23.9708 120.609 23.8711C120.342 23.7713 120.039 23.7215 119.701 23.7215C118.73 23.7215 117.935 24.0689 117.316 24.7636C116.694 25.4584 116.382 26.2976 116.382 27.2812C116.382 27.9485 116.565 28.485 116.93 28.8909C117.289 29.3036 117.82 29.51 118.524 29.51C118.906 29.51 119.264 29.436 119.599 29.2881C119.938 29.1402 120.218 28.9528 120.442 28.7258C120.902 28.258 121.174 27.8264 121.258 27.4309H118.869L119.056 26.5435H122.628L121.842 30.3148Z" fill="black"/>
<path d="M129.432 27.209C129.432 27.5151 129.388 27.7937 129.301 28.0448L129.25 28.1583H124.683C124.656 28.5091 124.768 28.8324 125.018 29.1282C125.268 29.4274 125.674 29.577 126.236 29.577C126.574 29.577 126.884 29.5203 127.164 29.4068C127.449 29.2899 127.648 29.1764 127.763 29.0663L127.925 28.8909H128.976C128.959 28.9218 128.928 28.9752 128.884 29.0508C128.837 29.1299 128.739 29.252 128.59 29.4171C128.441 29.5856 128.265 29.7421 128.062 29.8866C127.876 30.0207 127.611 30.1428 127.266 30.2529C126.938 30.3629 126.569 30.418 126.16 30.418C125.433 30.418 124.842 30.2133 124.389 29.804C123.936 29.3948 123.709 28.8393 123.709 28.1377C123.709 27.2503 124.03 26.5108 124.673 25.9192C125.309 25.3277 126.096 25.0319 127.032 25.0319C127.729 25.0319 128.304 25.2314 128.758 25.6303C129.207 26.0259 129.432 26.5521 129.432 27.209ZM126.961 25.878C126.393 25.878 125.908 26.0413 125.505 26.3681C125.103 26.6948 124.868 27.0164 124.8 27.3328H128.499C128.499 26.8754 128.357 26.5177 128.073 26.2597C127.785 26.0052 127.415 25.878 126.961 25.878Z" fill="black"/>
<path d="M134.953 25.1351H135.917L132.761 30.3148H131.426L130.432 25.1351H131.335L132.188 29.5977H132.228L134.953 25.1351Z" fill="black"/>
<path d="M141.752 27.209C141.752 27.5151 141.708 27.7937 141.62 28.0448L141.569 28.1583H137.003C136.976 28.5091 137.087 28.8324 137.337 29.1282C137.588 29.4274 137.994 29.577 138.555 29.577C138.893 29.577 139.203 29.5203 139.484 29.4068C139.768 29.2899 139.967 29.1764 140.082 29.0663L140.245 28.8909H141.295C141.278 28.9218 141.248 28.9752 141.204 29.0508C141.156 29.1299 141.058 29.252 140.909 29.4171C140.761 29.5856 140.585 29.7421 140.382 29.8866C140.196 30.0207 139.93 30.1428 139.585 30.2529C139.257 30.3629 138.888 30.418 138.479 30.418C137.752 30.418 137.162 30.2133 136.708 29.804C136.255 29.3948 136.028 28.8393 136.028 28.1377C136.028 27.2503 136.35 26.5108 136.992 25.9192C137.628 25.3277 138.415 25.0319 139.352 25.0319C140.049 25.0319 140.624 25.2314 141.077 25.6303C141.527 26.0259 141.752 26.5521 141.752 27.209ZM139.281 25.878C138.713 25.878 138.227 26.0413 137.825 26.3681C137.422 26.6948 137.187 27.0164 137.119 27.3328H140.818C140.818 26.8754 140.676 26.5177 140.392 26.2597C140.104 26.0052 139.734 25.878 139.281 25.878Z" fill="black"/>
<path d="M142.848 28.7L144.055 22.9167H144.948L143.776 28.5297C143.739 28.7292 143.717 28.9046 143.71 29.056C143.71 29.2658 143.759 29.4137 143.857 29.4997C143.955 29.5856 144.111 29.6286 144.324 29.6286C144.483 29.6286 144.615 29.608 144.72 29.5667L144.781 29.5409L144.613 30.3251C144.465 30.387 144.258 30.418 143.994 30.418C143.612 30.418 143.313 30.32 143.096 30.1239C142.883 29.9244 142.777 29.6493 142.777 29.2985C142.777 29.123 142.8 28.9236 142.848 28.7Z" fill="black"/>
<path d="M147.871 29.577C148.196 29.577 148.547 29.5272 148.926 29.4274C149.136 29.3724 149.303 29.2778 149.428 29.1437C149.554 29.0061 149.616 28.8427 149.616 28.6536C149.616 28.4782 149.496 28.3509 149.256 28.2718C149.019 28.1961 148.727 28.1428 148.378 28.1119C148.057 28.0843 147.712 28.0396 147.343 27.9777C146.991 27.9193 146.697 27.7954 146.46 27.6063C146.217 27.4171 146.095 27.154 146.095 26.8169C146.095 26.2116 146.335 25.7628 146.815 25.4704C147.296 25.1781 147.925 25.0319 148.703 25.0319C150.117 25.0319 150.824 25.4893 150.824 26.4042C150.824 26.5521 150.809 26.6931 150.778 26.8272H149.865C149.878 26.7757 149.885 26.6983 149.885 26.5951C149.885 26.117 149.466 25.878 148.627 25.878C148.089 25.878 147.688 25.9519 147.424 26.0998C147.16 26.2443 147.029 26.442 147.029 26.6931C147.029 26.8341 147.111 26.9476 147.277 27.0336C147.443 27.1162 147.664 27.1695 147.942 27.1935C148.206 27.2176 148.49 27.2537 148.794 27.3019C149.119 27.3569 149.403 27.4154 149.647 27.4773C149.907 27.5426 150.125 27.6682 150.301 27.8539C150.474 28.0362 150.56 28.2684 150.56 28.5504C150.56 29.1764 150.298 29.6441 149.774 29.9537C149.246 30.2632 148.588 30.418 147.8 30.418C147.123 30.418 146.579 30.3045 146.166 30.0775C145.757 29.8574 145.552 29.5065 145.552 29.025C145.552 28.884 145.577 28.6948 145.628 28.4575H146.541C146.508 28.6501 146.491 28.7722 146.491 28.8238C146.491 29.326 146.951 29.577 147.871 29.577Z" fill="black"/>
<path d="M148.955 3.15237e-06C149.313 -0.000619641 149.665 0.0910484 149.977 0.266161C150.302 0.436135 150.568 0.699544 150.742 1.02239C150.921 1.33351 151.015 1.68601 151.015 2.04477C151.015 2.40353 150.921 2.75603 150.742 3.06715C150.566 3.38801 150.3 3.65074 149.977 3.82338C149.667 4.00046 149.316 4.0936 148.959 4.0936C148.602 4.0936 148.251 4.00046 147.941 3.82338C147.621 3.64836 147.357 3.38612 147.181 3.06715C147.006 2.75605 146.913 2.40577 146.91 2.04899C146.913 1.68898 147.007 1.3356 147.185 1.02239C147.36 0.700777 147.626 0.437793 147.949 0.266161C148.257 0.0938351 148.603 0.00226055 148.955 3.15237e-06V3.15237e-06ZM148.955 0.337981C148.659 0.33953 148.368 0.416597 148.11 0.561891C147.841 0.705553 147.619 0.924226 147.472 1.19137C147.326 1.44914 147.247 1.73989 147.244 2.03632C147.243 2.33273 147.32 2.62413 147.468 2.88126C147.617 3.14544 147.836 3.36327 148.102 3.51075C148.358 3.65907 148.65 3.73715 148.946 3.73715C149.243 3.73715 149.535 3.65907 149.791 3.51075C150.057 3.36327 150.276 3.14544 150.425 2.88126C150.57 2.62311 150.647 2.33238 150.649 2.03632C150.646 1.73928 150.566 1.44808 150.417 1.19137C150.271 0.923324 150.049 0.704347 149.779 0.561891C149.527 0.419858 149.244 0.342895 148.955 0.337981V0.337981ZM148.059 3.18122V0.975914H148.816C149.004 0.966954 149.192 0.988352 149.373 1.03928C149.488 1.07536 149.586 1.15 149.652 1.25052C149.729 1.36307 149.764 1.49878 149.752 1.63442C149.739 1.77006 149.68 1.8972 149.584 1.99407C149.463 2.11346 149.302 2.18539 149.132 2.19686C149.203 2.22076 149.268 2.25967 149.322 2.31093C149.444 2.44103 149.553 2.58251 149.648 2.7334L149.914 3.15587H149.491L149.297 2.80522C149.204 2.61352 149.076 2.44032 148.921 2.29403C148.838 2.23734 148.738 2.21053 148.638 2.21798H148.431V3.18122H148.059ZM148.414 1.93915H148.837C148.984 1.95405 149.132 1.92148 149.259 1.84621C149.295 1.81736 149.323 1.78058 149.342 1.73878C149.362 1.69698 149.371 1.65131 149.369 1.6054C149.371 1.5418 149.351 1.47939 149.314 1.42796C149.278 1.37576 149.226 1.33596 149.166 1.31389C149.049 1.28237 148.928 1.26954 148.807 1.27587H148.406L148.414 1.93915Z" fill="#D9251C"/>
</g>
<defs>
<clipPath id="clip0_501_712">
<rect width="151" height="30.9672" fill="white"/>
</clipPath>
</defs>
</svg>
