<svg width="25" height="24" viewBox="0 0 25 24" fill="none" xmlns="http://www.w3.org/2000/svg">
<path d="M9.19047 7.55021C9.20116 7.72004 9.17419 7.89011 9.11134 8.04919C9.04849 8.20827 8.95119 8.35274 8.82587 8.47305C8.70055 8.59335 8.55007 8.68676 8.38436 8.7471C8.21865 8.80743 8.04149 8.83333 7.86458 8.82307C7.69444 8.82934 7.52472 8.8028 7.36544 8.74502C7.20617 8.68723 7.06059 8.59938 6.9373 8.48664C6.81401 8.3739 6.71552 8.23858 6.64765 8.08867C6.57979 7.93876 6.54392 7.7773 6.54218 7.61385C6.5347 7.44189 6.56324 7.27023 6.62613 7.10904C6.68901 6.94786 6.78495 6.80043 6.90826 6.67549C7.03158 6.55055 7.17976 6.45063 7.34402 6.38167C7.50829 6.31271 7.68531 6.2761 7.86458 6.27401C8.04045 6.26888 8.21554 6.29841 8.37905 6.36077C8.54256 6.42314 8.69102 6.51701 8.81527 6.63661C8.93951 6.7562 9.03691 6.89897 9.10144 7.0561C9.16598 7.21323 9.19628 7.3814 9.19047 7.55021Z" fill="#EFEFED"/>
<path d="M9.19126 9.45605H6.54297V17.7196H9.19126V9.45605Z" fill="#EFEFED"/>
<path d="M15.545 9.58303C15.0471 9.57022 14.5542 9.68058 14.1136 9.90349C13.6731 10.1264 13.2996 10.4544 13.0293 10.8559H12.963L12.8304 9.77396H10.4473C10.4473 10.474 10.5136 11.3014 10.5136 12.2527V17.7193H13.1619V13.2073C13.1476 12.9931 13.1699 12.7781 13.2281 12.5709C13.427 12.1254 13.7585 11.566 14.4877 11.566C15.4124 11.566 15.8101 12.3264 15.8101 13.3447V17.7193H18.4584V13.0298C18.4584 10.665 17.2023 9.58303 15.545 9.58303Z" fill="#EFEFED"/>
</svg>
