<svg width="25" height="24" viewBox="0 0 25 24" fill="none" xmlns="http://www.w3.org/2000/svg">
<path d="M5.0632 8.70933C5.15133 8.04866 5.36291 7.40868 5.68777 6.82014C6.53215 5.49704 7.85455 4.99125 9.37583 4.95441C11.4519 4.90416 13.5349 4.90751 15.611 4.95441C17.0067 4.9879 18.2767 5.4334 19.1351 6.60577C19.6528 7.34942 19.9218 8.22701 19.9062 9.12133C19.9376 11.0373 19.9515 12.9566 19.9062 14.8726C19.8678 16.4134 19.3095 17.7533 17.7952 18.5237C17.1058 18.8726 16.338 19.0543 15.5587 19.0529C13.507 19.073 11.4554 19.0931 9.40724 19.0529C7.86851 19.0194 6.53215 18.5204 5.6773 17.1805C5.35199 16.5933 5.14037 15.9544 5.05273 15.2947L5.0632 8.70933ZM12.5056 6.3043C11.4868 6.3043 10.4679 6.28755 9.44911 6.3043C7.85804 6.36459 6.88107 7.06801 6.59146 8.37437C6.52435 8.65466 6.4881 8.94095 6.4833 9.22852C6.4833 11.0809 6.44492 12.9332 6.4833 14.7822C6.52168 16.6312 7.49167 17.6093 9.34443 17.6762C11.4379 17.7499 13.5315 17.7432 15.625 17.6762C17.1672 17.6294 18.0674 16.9159 18.3779 15.6363C18.4371 15.4081 18.4722 15.1746 18.4826 14.9396C18.4826 12.8294 18.6152 10.7157 18.4163 8.60884C18.3803 8.0344 18.1291 7.49184 17.709 7.08124C17.289 6.67063 16.7285 6.41967 16.1309 6.37464C14.9236 6.22391 13.7129 6.33445 12.5056 6.311V6.3043Z" fill="#EFEFED"/>
<path d="M16.3364 12.0283C16.3364 12.7571 16.1113 13.4694 15.6895 14.0754C15.2678 14.6813 14.6684 15.1536 13.967 15.4324C13.2657 15.7113 12.494 15.7843 11.7495 15.6421C11.005 15.4999 10.3211 15.149 9.78431 14.6337C9.24754 14.1184 8.882 13.4619 8.73391 12.7472C8.58581 12.0324 8.66182 11.2916 8.95232 10.6183C9.24281 9.94503 9.73475 9.36958 10.3659 8.96471C10.9971 8.55985 11.7392 8.34375 12.4983 8.34375C13.5142 8.3499 14.4867 8.74007 15.2051 9.42973C15.9235 10.1194 16.33 11.053 16.3364 12.0283ZM14.9093 12.0082C14.919 11.5426 14.784 11.0847 14.5216 10.693C14.2592 10.3013 13.8812 9.99352 13.4359 9.80884C12.9905 9.62416 12.498 9.57098 12.021 9.65609C11.5441 9.74119 11.1043 9.96073 10.7578 10.2867C10.4113 10.6127 10.1738 11.0303 10.0756 11.4864C9.97728 11.9424 10.0227 12.4163 10.2061 12.8475C10.3894 13.2786 10.7023 13.6476 11.105 13.9074C11.5076 14.1672 11.9817 14.306 12.4669 14.3061C13.1079 14.3114 13.725 14.0725 14.1828 13.6418C14.6407 13.2111 14.9019 12.6236 14.9093 12.0082Z" fill="#EFEFED"/>
<path d="M16.4414 7.3692C16.6879 7.36651 16.9254 7.45772 17.102 7.62284C17.2786 7.78796 17.3798 8.01353 17.3835 8.25015C17.3689 8.47919 17.2638 8.69426 17.0898 8.8515C16.9157 9.00873 16.6856 9.09628 16.4466 9.09628C16.2076 9.09628 15.9776 9.00873 15.8035 8.8515C15.6294 8.69426 15.5243 8.47919 15.5098 8.25015C15.5107 8.13358 15.5355 8.01832 15.5828 7.91096C15.6301 7.80361 15.699 7.70624 15.7855 7.62444C15.872 7.54264 15.9745 7.47799 16.087 7.4342C16.1995 7.3904 16.32 7.36832 16.4414 7.3692Z" fill="#EFEFED"/>
</svg>
