<svg width="25" height="24" viewBox="0 0 25 24" fill="none" xmlns="http://www.w3.org/2000/svg">
<path d="M18.492 9.27198C18.2198 7.26221 16.9777 5.92237 15.0342 5.16535C13.5791 4.63536 11.9795 4.59638 10.4983 5.05482C9.4244 5.33605 8.46606 5.92639 7.75229 6.74637C7.01441 7.58407 6.56575 8.62108 6.46827 9.71413C6.33599 10.8753 6.6622 12.0419 7.38244 12.9834C7.61852 13.2978 7.92801 13.5547 8.28614 13.7337C8.53038 13.8576 8.59668 13.8275 8.66297 13.5762C8.72926 13.325 8.77113 13.0972 8.8479 12.8661C8.89238 12.7635 8.90419 12.6505 8.88184 12.5414C8.85948 12.4323 8.80396 12.332 8.72229 12.2531C8.65245 12.1695 8.59492 12.0771 8.55132 11.9785C8.13507 11.1839 8.01641 10.2761 8.2153 9.40742C8.41418 8.53879 8.91848 7.76236 9.64343 7.20862C10.2732 6.72494 11.0289 6.41614 11.8286 6.31575C12.6282 6.21537 13.4413 6.32722 14.1794 6.63919C14.7054 6.8297 15.173 7.14439 15.5389 7.55419C15.9048 7.964 16.1572 8.45571 16.2729 8.98392C16.6283 10.2943 16.4367 11.686 15.739 12.8628C15.5339 13.2606 15.2228 13.5993 14.8374 13.8446C14.452 14.0899 14.0059 14.233 13.5443 14.2596C13.185 14.2958 12.8247 14.2008 12.535 13.9935C12.2453 13.7861 12.0476 13.4817 11.9812 13.1408C11.9443 12.8804 11.9718 12.6153 12.0614 12.367C12.2533 11.7273 12.4557 11.0875 12.6441 10.4477C12.7547 10.0997 12.802 9.73592 12.7837 9.37247C12.7838 9.20139 12.7423 9.03264 12.6627 8.87959C12.5831 8.72654 12.4674 8.59339 12.3249 8.49069C12.1823 8.38798 12.0169 8.31855 11.8415 8.28788C11.6662 8.25721 11.4859 8.26615 11.3147 8.31399C11.0663 8.37379 10.8361 8.48897 10.6427 8.65017C10.4493 8.81138 10.2982 9.01409 10.2017 9.24184C10.0217 9.62236 9.92331 10.0338 9.91252 10.4516C9.90173 10.8694 9.97872 11.285 10.1389 11.6737C10.1786 11.7812 10.1858 11.8973 10.1598 12.0086C9.8807 13.1374 9.62599 14.273 9.31545 15.3951C8.99784 16.462 8.89715 17.5776 9.01887 18.6811C9.05042 18.8398 9.09237 18.9964 9.14448 19.15L9.63994 19.2505C9.63994 19.2505 9.72368 19.1065 9.79695 18.9758C10.3413 17.9475 10.7774 17.2005 11.0042 16.2023C11.1089 15.7334 11.2554 15.2711 11.3845 14.8055C11.3845 14.7553 11.3845 14.6816 11.4508 14.6682C11.5171 14.6548 11.5381 14.7252 11.566 14.7654C11.7093 14.9533 11.8894 15.1126 12.0963 15.2343C12.6303 15.5559 13.2579 15.7039 13.8863 15.6564C14.9626 15.62 15.9848 15.194 16.7474 14.4639C18.2373 13.0236 18.7537 11.2382 18.492 9.27198Z" fill="#EFEFED"/>
</svg>
