<svg width="24" height="25" viewBox="0 0 24 25" fill="none" xmlns="http://www.w3.org/2000/svg">
<path fill-rule="evenodd" clip-rule="evenodd" d="M10 3.5C6.13401 3.5 3 6.63401 3 10.5C3 14.366 6.13401 17.5 10 17.5C13.866 17.5 17 14.366 17 10.5C17 6.63401 13.866 3.5 10 3.5ZM2 10.5C2 6.08172 5.58172 2.5 10 2.5C14.4183 2.5 18 6.08172 18 10.5C18 14.9183 14.4183 18.5 10 18.5C5.58172 18.5 2 14.9183 2 10.5Z" fill="black"/>
<path fill-rule="evenodd" clip-rule="evenodd" d="M15.1464 15.6464C15.3417 15.4512 15.6583 15.4512 15.8536 15.6464L21.8536 21.6464C22.0488 21.8417 22.0488 22.1583 21.8536 22.3536C21.6583 22.5488 21.3417 22.5488 21.1464 22.3536L15.1464 16.3536C14.9512 16.1583 14.9512 15.8417 15.1464 15.6464Z" fill="black"/>
</svg>
